PathFileType	4	(X/Y/Z)	statics_05.trc	
DataRate	CameraRate	NumFrames	NumMarkers	Units	OrigDataRate	OrigDataStartFrame	OrigNumFrames	
150.00	150.00	4	26	mm	150.00	271	720	
Frame#	Time	FT1			FT2			FT3			FT4			FT5			DP2			DP3			DP4			DP5			PP2			PP3			PP4			PP5			IP			MP1			MP2			MP3			MP4			MP5			CMC1			CMC2			CMC5			RS			US			EM			EL			
		X1	Y1	Z1	X2	Y2	Z2	X3	Y3	Z3	X4	Y4	Z4	X5	Y5	Z5	X6	Y6	Z6	X7	Y7	Z7	X8	Y8	Z8	X9	Y9	Z9	X10	Y10	Z10	X11	Y11	Z11	X12	Y12	Z12	X13	Y13	Z13	X14	Y14	Z14	X15	Y15	Z15	X16	Y16	Z16	X17	Y17	Z17	X18	Y18	Z18	X19	Y19	Z19	X20	Y20	Z20	X21	Y21	Z21	X22	Y22	Z22	X23	Y23	Z23	X24	Y24	Z24	X25	Y25	Z25	X26	Y26	Z26	

271	1.8	411.7311066607816	135.54072441611362	-177.0975588590798	433.062045154466	133.35703237767225	-275.3722664763246	470.6942206697937	132.44186122870389	-297.1369689914932	500.99483684042264	127.62654330453282	-296.4042490387291	537.960148427152	128.34254137708297	-280.34450934578393	440.2088931271834	144.74320097355871	-259.05487594959595	474.9456885709946	142.80077741386472	-279.74699528324214	507.8088241559909	137.01864891883378	-279.35839448918654	543.2664666600733	133.49628386505705	-262.7402382266251	451.2586532690175	158.41787682198847	-236.16204748842452	480.6420127781689	159.37530972983896	-252.0694260201645	511.9143227645504	152.56616177817727	-252.61882849604174	545.6214834996472	139.74667725207652	-242.97581799408283	429.80405893269506	135.6942533324097	-162.24367443698873	451.2383273462789	142.28149705019936	-140.2196811383698	473.207162858542	167.88672736783482	-194.2003976768173	500.5197133822072	169.33731978123845	-205.09254439900664	520.6906968100818	160.30579688505952	-207.31888533822843	542.6278300009142	146.823566467128	-209.7276942607826	484.48834074009466	144.8319830684634	-119.63779608747525	501.99937545461506	170.27084867287633	-158.75923024951516	538.8526532437388	160.05563163585703	-173.18274844892304	524.724605894978	164.0767951244437	-99.59521763070767	566.537439043501	163.31231570869534	-127.83264274689624	673.7529638252087	40.6596744457381	105.114018119542	727.0525567630586	91.1316394831633	79.78242187122916	
272	1.80667	411.7127334339064	135.5085790491909	-177.06433070363664	433.03499548167844	133.3247415404001	-275.3555571859933	470.665356950315	132.41076394687636	-297.1273445965592	500.9658247288777	127.58978942300266	-296.3955821485814	537.9391272448161	128.30472305831165	-280.3403510542067	440.17947992436814	144.7099342992442	-259.0384512668114	474.9182269627882	142.76861909511865	-279.7369984546824	507.78141042323506	136.98120208487776	-279.35364782448676	543.2463024143835	133.45767816122873	-262.7354556006294	451.23801034831126	158.39346806968743	-236.1514846513651	480.6199182327896	159.3430216057736	-252.0636627062738	511.8925096917662	152.53019533487844	-252.61223919845457	545.6043428298955	139.70891613455265	-242.97501022556904	429.7853769524334	135.6600012331572	-162.2148880129521	451.22856368543006	142.2538183139479	-140.19687391644098	473.193887700957	167.85687110387795	-194.19305684866973	500.5016079011202	169.30739582833954	-205.08808222053725	520.6750496135148	160.27183883571817	-207.31395048816412	542.6125204246603	146.7872572978817	-209.72588944546135	484.484355709479	144.80724661466598	-119.62531314343138	501.9870346090753	170.2360569297369	-158.74982291741333	538.843083183452	160.03437925403335	-173.1790590861965	524.7194959317093	164.0471429807724	-99.58927671590166	566.529074841218	163.27778349587996	-127.82973858763926	673.7491723243821	40.63008468525043	105.11501975242099	727.0420537817442	91.12021308418554	79.77448970814193	
273	1.81333	411.692064913276	135.47603748161876	-177.02853129605452	433.0047133913049	133.29758536622455	-275.33749255817435	470.6325631800891	132.38438609128255	-297.116666161998	500.9332141088587	127.5579042042255	-296.3858061270434	537.914323003341	128.2707323030395	-280.33543286133835	440.14629736523375	144.68120242533794	-259.02021719933185	474.8869502413328	142.74011593834254	-279.72556431417456	507.7521264514884	136.9485448813567	-279.34752466027476	543.2225068210154	133.42219470014453	-262.7304013784315	451.2142001377702	158.372004957779	-236.13877094186012	480.5959150615527	159.31513868600706	-252.05613252018736	511.8675457547545	152.49735721878974	-252.60459740103698	545.5842589099748	139.67387692624578	-242.97414982316155	429.763936422115	135.6272628322548	-162.1843796312007	451.21661182001054	142.22722036156486	-140.17195058273458	473.17830327588285	167.8295599377185	-194.18394645161558	500.48083401339665	169.28039010696358	-205.08267551566175	520.6564721965649	160.24136961823206	-207.30831461246697	542.5942473583151	146.75316209887276	-209.7232237245508	484.477993869014	144.78519295903172	-119.61166135896063	501.97262940129184	170.20418420996126	-158.73967655016446	538.8295120744218	160.0124647933881	-173.17576243553174	524.7130104525666	164.01964716467626	-99.58226721044895	566.5191693130546	163.24743008111534	-127.82682836932102	673.7485452752715	40.603745027581645	105.1143642030633	727.0346649049031	91.1093574264649	79.7653126930287	
274	1.82	411.66958888016615	135.4425203892584	-176.9913894042067	432.97190092921915	133.27593807010518	-275.31863209496674	470.5965170422864	132.3625642582192	-297.1050632966419	500.89763048963454	127.53072105302084	-296.37517699982857	537.8861212807411	128.24090628240745	-280.32997477024753	440.1104196120734	144.6574603260064	-259.0007314387471	474.8525555772751	142.71541753535544	-279.7128599441046	507.7213364002223	136.92078506052454	-279.3399724696712	543.1954286493201	133.39024527958244	-262.72524027864534	451.18773882578506	158.35315379233717	-236.12392576300826	480.5704196152368	159.2914958704358	-252.04674708032343	511.8398358440186	152.46806989313404	-252.59592226546872	545.5614889353461	139.64208761528243	-242.973096374364	429.74028941314265	135.59579051580698	-162.15317692654773	451.20254537420794	142.20112549505527	-140.14566267574227	473.160567386223	167.8048765666817	-194.1730189279046	500.4575711728183	169.25608584494094	-205.0763219397551	520.6353391290602	160.21445566418666	-207.30210608576442	542.5732757653672	146.72173488602857	-209.7199126925462	484.46941232275856	144.76529442487978	-119.59709721173506	501.956416855402	170.1754535778297	-158.728979192323	538.81236825435	159.99030541319107	-173.17259317988152	524.7051187225358	163.99427788670283	-99.57444134512654	566.5077998581995	163.22110308463454	-127.82398435350743	673.7510549849242	40.58080197582695	105.11212017861386	727.0304786666858	91.09902887640594	79.75504462201327	
